<svg width="22" height="17" viewBox="0 0 22 17" fill="none" xmlns="http://www.w3.org/2000/svg">
<path d="M16.5 0C14.55 0 12.45 0.387524 11 1.45322C9.55 0.387524 7.45 0 5.5 0C4.05 0 2.51 0.213138 1.22 0.76536C0.49 1.08507 0 1.77292 0 2.55766V13.4858C0 14.7453 1.22 15.6754 2.48 15.3653C3.46 15.1231 4.5 15.0166 5.5 15.0166C7.06 15.0166 8.72 15.2685 10.06 15.9079C10.66 16.1985 11.34 16.1985 11.93 15.9079C13.27 15.2588 14.93 15.0166 16.49 15.0166C17.49 15.0166 18.53 15.1231 19.51 15.3653C20.77 15.685 21.99 14.755 21.99 13.4858V2.55766C21.99 1.77292 21.5 1.08507 20.77 0.76536C19.49 0.213138 17.95 0 16.5 0ZM20 12.333C20 12.9433 19.42 13.389 18.8 13.2824C18.05 13.1468 17.27 13.0886 16.5 13.0886C14.8 13.0886 12.35 13.7184 11 14.5418V3.39084C12.35 2.56735 14.8 1.93762 16.5 1.93762C17.42 1.93762 18.33 2.02481 19.2 2.20889C19.66 2.30577 20 2.70298 20 3.15832V12.333Z" fill="url(#paint0_linear_8_221)"/>
<path d="M12.98 6.30761C12.66 6.30761 12.37 6.11378 12.27 5.80366C12.14 5.4257 12.36 5.00898 12.75 4.89268C14.29 4.40811 16.28 4.25305 18.11 4.45657C18.52 4.50503 18.82 4.86361 18.77 5.26095C18.72 5.65829 18.35 5.94903 17.94 5.90057C16.32 5.71644 14.55 5.86181 13.21 6.27854C13.13 6.28823 13.05 6.30761 12.98 6.30761Z" fill="url(#paint1_linear_8_221)"/>
<path d="M12.98 8.88464C12.66 8.88464 12.37 8.69081 12.27 8.38069C12.14 8.00273 12.36 7.586 12.75 7.46971C14.28 6.98514 16.28 6.83008 18.11 7.0336C18.52 7.08205 18.82 7.44063 18.77 7.83798C18.72 8.23532 18.35 8.52606 17.94 8.4776C16.32 8.29347 14.55 8.43884 13.21 8.85556C13.13 8.87494 13.05 8.88464 12.98 8.88464Z" fill="url(#paint2_linear_8_221)"/>
<path d="M12.98 11.4617C12.66 11.4617 12.37 11.2678 12.27 10.9577C12.14 10.5798 12.36 10.163 12.75 10.0467C14.28 9.56217 16.28 9.40711 18.11 9.61062C18.52 9.65908 18.82 10.0177 18.77 10.415C18.72 10.8123 18.35 11.0934 17.94 11.0546C16.32 10.8705 14.55 11.0159 13.21 11.4326C13.13 11.452 13.05 11.4617 12.98 11.4617Z" fill="url(#paint3_linear_8_221)"/>
<defs>
<linearGradient id="paint0_linear_8_221" x1="10.995" y1="0" x2="10.995" y2="16.1258" gradientUnits="userSpaceOnUse">
<stop stop-color="#B6F829"/>
<stop offset="1" stop-color="#67DD0A"/>
</linearGradient>
<linearGradient id="paint1_linear_8_221" x1="15.504" y1="4.36926" x2="15.504" y2="6.30761" gradientUnits="userSpaceOnUse">
<stop stop-color="#B6F829"/>
<stop offset="1" stop-color="#67DD0A"/>
</linearGradient>
<linearGradient id="paint2_linear_8_221" x1="15.504" y1="6.94629" x2="15.504" y2="8.88464" gradientUnits="userSpaceOnUse">
<stop stop-color="#B6F829"/>
<stop offset="1" stop-color="#67DD0A"/>
</linearGradient>
<linearGradient id="paint3_linear_8_221" x1="15.504" y1="9.52332" x2="15.504" y2="11.4617" gradientUnits="userSpaceOnUse">
<stop stop-color="#B6F829"/>
<stop offset="1" stop-color="#67DD0A"/>
</linearGradient>
</defs>
</svg>
