<svg width="22" height="20" viewBox="0 0 22 20" fill="none" xmlns="http://www.w3.org/2000/svg">
<path d="M11.65 13.2436C11.79 12.8949 11.7 12.4977 11.42 12.2264L9.33 10.2306L9.36 10.2016C11.1 8.32208 12.34 6.16163 13.07 3.87524H15.01C15.55 3.87524 16 3.43928 16 2.91612V2.89674C16 2.37358 15.55 1.93762 15.01 1.93762H9V0.96881C9 0.435965 8.55 0 8 0C7.45 0 7 0.435965 7 0.96881V1.93762H0.99C0.45 1.93762 0 2.37358 0 2.89674C0 3.42959 0.45 3.85586 0.99 3.85586H11.17C10.5 5.73536 9.44 7.50828 8 9.05838C7.19 8.19614 6.51 7.25639 5.94 6.2682C5.78 5.98725 5.49 5.81286 5.16 5.81286C4.47 5.81286 4.03 6.53947 4.37 7.12076C5 8.21551 5.77 9.26183 6.67 10.2306L2.3 14.4062C1.9 14.784 1.9 15.4041 2.3 15.7819C2.69 16.1598 3.32 16.1598 3.72 15.7819L8 11.6257L10.02 13.5827C10.53 14.0768 11.4 13.8927 11.65 13.2436ZM16.5 7.75048C15.9 7.75048 15.36 8.10894 15.15 8.66116L11.48 18.1555C11.24 18.7465 11.7 19.3762 12.35 19.3762C12.74 19.3762 13.09 19.1437 13.23 18.7852L14.12 16.4698H18.87L19.77 18.7852C19.91 19.134 20.26 19.3762 20.65 19.3762C21.3 19.3762 21.76 18.7465 21.53 18.1555L17.86 8.66116C17.64 8.10894 17.1 7.75048 16.5 7.75048ZM14.88 14.5322L16.5 10.3372L18.12 14.5322H14.88Z" fill="url(#paint0_linear_8_229)"/>
<defs>
<linearGradient id="paint0_linear_8_229" x1="10.795" y1="0" x2="10.795" y2="19.3762" gradientUnits="userSpaceOnUse">
<stop stop-color="#B6F829"/>
<stop offset="1" stop-color="#67DD0A"/>
</linearGradient>
</defs>
</svg>
